<?xml version="1.0" ?><!DOCTYPE svg  PUBLIC '-//W3C//DTD SVG 1.1//EN'  'http://www.w3.org/Graphics/SVG/1.1/DTD/svg11.dtd'><svg enable-background="new 0 0 512 512" height="512px" id="Layer_1" version="1.1" viewBox="0 0 512 512" width="512px" xml:space="preserve" xmlns="http://www.w3.org/2000/svg" xmlns:xlink="http://www.w3.org/1999/xlink"><g id="_x31_59_x2C__Twitter_x2C__Image_x2C__Picture"><g id="XMLID_5057_"><g id="XMLID_6734_"><g><g><g><path d="M150,182c-12.131,0-22-9.869-22-22s9.869-22,22-22s22,9.869,22,22S162.131,182,150,182z" fill="#FFF500"/></g><g><path d="M58,58h394v261.311l-92.592-84.175L270,324.544l-55-55l-157,157V58z M150,102        c-31.981,0-58,26.019-58,58s26.019,58,58,58s58-26.019,58-58S181.981,102,150,102z" fill="#FFF500"/></g><g><polygon fill="#FFF500" points="397.456,452 295.456,350 360.592,284.864 452,367.963 452,452       "/></g><g><polygon fill="#FFF500" points="83.456,452 215,320.456 346.544,452       "/></g></g></g><g><g><path d="M470,480H40c-5.523,0-10-4.478-10-10V40c0-5.523,4.477-10,10-10h430c5.522,0,10,4.477,10,10v430       C480,475.522,475.522,480,470,480z M50,460h410V50H50V460z"/></g><g><path d="M40,480c-2.559,0-5.119-0.977-7.071-2.929c-3.905-3.905-3.905-10.237,0-14.144l175-175       c3.905-3.904,10.237-3.904,14.143,0l170,170c3.904,3.905,3.904,10.237,0,14.144c-3.906,3.903-10.236,3.903-14.144,0       L215,309.143L47.071,477.071C45.119,479.023,42.559,480,40,480z"/></g><g><path d="M469.997,370c-2.4,0-4.808-0.857-6.724-2.602l-102.944-93.586L277.07,357.07c-3.905,3.904-10.235,3.904-14.143,0       c-3.904-3.904-3.904-10.236,0-14.143l90-90c3.775-3.774,9.852-3.918,13.798-0.328l110,100       c4.088,3.715,4.389,10.041,0.674,14.127C475.426,368.896,472.716,370,469.997,370z"/></g><g><path d="M150,210c-27.57,0-50-22.43-50-50s22.43-50,50-50s50,22.43,50,50S177.57,210,150,210z M150,130       c-16.542,0-30,13.458-30,30s13.458,30,30,30s30-13.458,30-30S166.542,130,150,130z"/></g></g></g></g></g><g id="Layer_1_1_"/></svg>