<svg viewBox="0 0 313.3027 62.5793" width="5000px" height="998.703476801727px" xmlns="http://www.w3.org/2000/svg" xmlns:xlink="http://www.w3.org/1999/xlink" preserveAspectRatio="none"><defs></defs><style>.a6izo4zJpcolor0-b_oukt6 {fill:#141414;fill-opacity:1;}.aD6z1nYkhcolor0-b_oukt6 {fill:#141414;fill-opacity:1;}.aIptOCySncolors-00-b_oukt6 {fill:#D9D9D9;fill-opacity:1;}</style><g opacity="1" transform="rotate(0 0 0)">
        <svg width="62.5983" height="62.5793" x="0" y="0" version="1.1" preserveAspectRatio="none" viewBox="0.8440003395080566 0.8439998626708984 3.314000129699707 3.313000202178955">
          <g transform="matrix(1 0 0 1 0 0)" class="aIptOCySncolors-00-b_oukt6"><g><path d="M3.024,2.244c0-0.008-0.193-0.335-0.248-0.385c0,0.004-0.004,0.004-0.004,0.004   C2.747,1.934,2.724,2.004,2.694,2.07c0,0,0,0.005-0.004,0.005C2.673,2.174,2.636,2.253,2.575,2.327   C2.571,2.335,2.571,2.344,2.567,2.352c0.045,0.062,0.094,0.12,0.16,0.161c0.057,0.042,0.123,0.083,0.186,0.12   C3.028,2.67,3.136,2.724,3.239,2.777C3.313,2.819,3.265,2.918,3.19,2.91C3.024,2.885,2.876,2.827,2.72,2.777   C2.724,2.782,2.724,2.786,2.728,2.79C2.79,2.835,3.372,3.327,3.323,3.335C3.099,3.372,2.255,2.687,2.087,2.451   C2.046,2.397,2.028,2.331,1.999,2.27C1.972,2.22,1.972,2.161,1.954,2.249C1.942,2.331,1.64,2.698,1.661,2.757   c0.025,0.062,0.207,0.455,0.133,0.38C1.706,3.051,1.562,2.98,1.442,2.894c-0.033,0.009-0.07,0.005-0.1-0.009   c0.004,0.129,0.078,0.491,0,0.446C1.284,3.298,1.028,3.104,0.938,3.055C1.165,3.699,1.78,4.157,2.501,4.157   c0.715,0,1.316-0.446,1.553-1.077C3.685,2.877,3.017,2.472,3.024,2.244z"></path><path d="M3.521,2.294c-0.016-0.008-0.09-0.008-0.1,0.004c0.084,0.091,0.178,0.178,0.26,0.261   C3.821,2.69,3.954,2.823,4.099,2.951c0.025-0.09,0.041-0.183,0.051-0.276C4.021,2.592,3.917,2.451,3.784,2.372   C3.698,2.323,3.606,2.344,3.521,2.294z"></path><path d="M1.21,2.446c0.055-0.062,0.256-0.074,0.314-0.136c0.1-0.107,0.385-0.41,0.385-0.41s0.17,0.212,0.223,0.282   C2.19,2.157,2.243,2.129,2.298,2.1c0.111-0.174,0.479-0.542,0.479-0.542l0.43,0.479c0.014,0,0.285-0.12,0.285-0.12   s0.34,0.377,0.451,0.476c0.07,0.062,0.141,0.124,0.215,0.183c0-0.025,0-0.05,0-0.075c0-0.913-0.74-1.657-1.656-1.657   c-0.914,0-1.658,0.744-1.658,1.657c0,0.116,0.012,0.228,0.033,0.335C0.983,2.749,1.179,2.438,1.21,2.446z"></path></g></g>
        </svg>
      </g><g opacity="1" transform="rotate(0 67.2957 40.81540000000001)">
        <svg width="80.6958" height="12.7011" x="67.2957" y="40.81540000000001" version="1.1" preserveAspectRatio="none" viewBox="3.76 -28 227.20000000000002 35.76">
          <g transform="matrix(1 0 0 1 0 0)" class="a6izo4zJpcolor0-b_oukt6"><path transform="" stroke="none" d="M3.76 0L3.76-28L8.96-28L8.96-4.40L23.60-4.40L23.60 0L3.76 0Z"></path>
    <path transform="" stroke="none" d="M39.60-21.60Q44.32-21.60 46.82-19.34Q49.32-17.08 49.32-12.52L49.32-12.52L49.32 0L44.60 0L44.60-2.60Q43.68-1.20 41.98-0.46Q40.28 0.28 37.88 0.28L37.88 0.28Q35.48 0.28 33.68-0.54Q31.88-1.36 30.90-2.82Q29.92-4.28 29.92-6.12L29.92-6.12Q29.92-9 32.06-10.74Q34.20-12.48 38.80-12.48L38.80-12.48L44.32-12.48L44.32-12.80Q44.32-15.04 42.98-16.24Q41.64-17.44 39-17.44L39-17.44Q37.20-17.44 35.46-16.88Q33.72-16.32 32.52-15.32L32.52-15.32L30.56-18.96Q32.24-20.24 34.60-20.92Q36.96-21.60 39.60-21.60L39.60-21.60ZM38.92-3.36Q40.80-3.36 42.26-4.22Q43.72-5.08 44.32-6.68L44.32-6.68L44.32-9.16L39.16-9.16Q34.84-9.16 34.84-6.32L34.84-6.32Q34.84-4.96 35.92-4.16Q37-3.36 38.92-3.36L38.92-3.36Z"></path>
    <path transform="" stroke="none" d="M71.56-21.60Q74.68-21.60 77.14-20.24Q79.60-18.88 81-16.40Q82.40-13.92 82.40-10.68L82.40-10.68Q82.40-7.44 81-4.94Q79.60-2.44 77.14-1.08Q74.68 0.28 71.56 0.28L71.56 0.28Q67.24 0.28 64.72-2.60L64.72-2.60L64.72 7.76L59.72 7.76L59.72-21.36L64.48-21.36L64.48-18.56Q65.72-20.08 67.54-20.84Q69.36-21.60 71.56-21.60L71.56-21.60ZM71-4Q73.76-4 75.54-5.84Q77.32-7.68 77.32-10.68L77.32-10.68Q77.32-13.68 75.54-15.52Q73.76-17.36 71-17.36L71-17.36Q69.20-17.36 67.76-16.54Q66.32-15.72 65.48-14.20Q64.64-12.68 64.64-10.68L64.64-10.68Q64.64-8.68 65.48-7.16Q66.32-5.64 67.76-4.82Q69.20-4 71-4L71-4Z"></path>
    <path transform="" stroke="none" d="M106.84-21.36L111.84-21.36L111.84 0L107.08 0L107.08-2.72Q105.88-1.28 104.08-0.50Q102.28 0.28 100.20 0.28L100.20 0.28Q95.92 0.28 93.46-2.10Q91-4.48 91-9.16L91-9.16L91-21.36L96-21.36L96-9.84Q96-6.96 97.30-5.54Q98.60-4.12 101-4.12L101-4.12Q103.68-4.12 105.26-5.78Q106.84-7.44 106.84-10.56L106.84-10.56L106.84-21.36Z"></path>
    <path transform="" stroke="none" d="M122.88 0L122.88-28L128.08-28L128.08-4.40L142.72-4.40L142.72 0L122.88 0Z"></path>
    <path transform="" stroke="none" d="M158.72-21.60Q163.44-21.60 165.94-19.34Q168.44-17.08 168.44-12.52L168.44-12.52L168.44 0L163.72 0L163.72-2.60Q162.80-1.20 161.10-0.46Q159.40 0.28 157 0.28L157 0.28Q154.60 0.28 152.80-0.54Q151-1.36 150.02-2.82Q149.04-4.28 149.04-6.12L149.04-6.12Q149.04-9 151.18-10.74Q153.32-12.48 157.92-12.48L157.92-12.48L163.44-12.48L163.44-12.80Q163.44-15.04 162.10-16.24Q160.76-17.44 158.12-17.44L158.12-17.44Q156.32-17.44 154.58-16.88Q152.84-16.32 151.64-15.32L151.64-15.32L149.68-18.96Q151.36-20.24 153.72-20.92Q156.08-21.60 158.72-21.60L158.72-21.60ZM158.04-3.36Q159.92-3.36 161.38-4.22Q162.84-5.08 163.44-6.68L163.44-6.68L163.44-9.16L158.28-9.16Q153.96-9.16 153.96-6.32L153.96-6.32Q153.96-4.96 155.04-4.16Q156.12-3.36 158.04-3.36L158.04-3.36Z"></path>
    <path transform="" stroke="none" d="M190.68-21.60Q193.80-21.60 196.26-20.24Q198.72-18.88 200.12-16.40Q201.52-13.92 201.52-10.68L201.52-10.68Q201.52-7.44 200.12-4.94Q198.72-2.44 196.26-1.08Q193.80 0.28 190.68 0.28L190.68 0.28Q186.36 0.28 183.84-2.60L183.84-2.60L183.84 7.76L178.84 7.76L178.84-21.36L183.60-21.36L183.60-18.56Q184.84-20.08 186.66-20.84Q188.48-21.60 190.68-21.60L190.68-21.60ZM190.12-4Q192.88-4 194.66-5.84Q196.44-7.68 196.44-10.68L196.44-10.68Q196.44-13.68 194.66-15.52Q192.88-17.36 190.12-17.36L190.12-17.36Q188.32-17.36 186.88-16.54Q185.44-15.72 184.60-14.20Q183.76-12.68 183.76-10.68L183.76-10.68Q183.76-8.68 184.60-7.16Q185.44-5.64 186.88-4.82Q188.32-4 190.12-4L190.12-4Z"></path>
    <path transform="" stroke="none" d="M225.96-21.36L230.96-21.36L230.96 0L226.20 0L226.20-2.72Q225-1.28 223.20-0.50Q221.40 0.28 219.32 0.28L219.32 0.28Q215.04 0.28 212.58-2.10Q210.12-4.48 210.12-9.16L210.12-9.16L210.12-21.36L215.12-21.36L215.12-9.84Q215.12-6.96 216.42-5.54Q217.72-4.12 220.12-4.12L220.12-4.12Q222.80-4.12 224.38-5.78Q225.96-7.44 225.96-10.56L225.96-10.56L225.96-21.36Z"></path>
    </g>
        </svg>
      </g><g opacity="1" transform="rotate(0 67.2957 9.062700000000007)">
        <svg width="246.007" height="25.4022" x="67.2957" y="9.062700000000007" version="1.1" preserveAspectRatio="none" viewBox="0.56 -28.04 351.7412 36.32">
          <g transform="matrix(1 0 0 1 0 0)" class="aD6z1nYkhcolor0-b_oukt6"><path transform="" stroke="none" d="M8.40 0.32Q4.88 0.32 2.72-1.74Q0.56-3.80 0.56-7.20L0.56-7.20L0.56-9.96Q0.56-10.16 0.70-10.30Q0.84-10.44 1.04-10.44L1.04-10.44L5.72-10.44Q5.92-10.44 6.06-10.30Q6.20-10.16 6.20-9.96L6.20-9.96L6.20-7.12Q6.20-5.96 6.80-5.24Q7.40-4.52 8.40-4.52L8.40-4.52Q9.44-4.52 10.06-5.24Q10.68-5.96 10.68-7.12L10.68-7.12L10.68-27.52Q10.68-27.72 10.82-27.86Q10.96-28 11.16-28L11.16-28L15.84-28Q16.04-28 16.18-27.86Q16.32-27.72 16.32-27.52L16.32-27.52L16.32-7.20Q16.32-3.80 14.14-1.74Q11.96 0.32 8.40 0.32L8.40 0.32Z"></path>
    <path transform="" stroke="none" d="M27-20.88Q30.40-20.88 32.52-19.04Q34.64-17.20 34.64-14.20L34.64-14.20L34.64-0.48Q34.64-0.28 34.50-0.14Q34.36 0 34.16 0L34.16 0L29.48 0Q29.28 0 29.14-0.14Q29-0.28 29-0.48L29-0.48L29-1.36Q29-1.48 28.92-1.52Q28.84-1.56 28.76-1.44L28.76-1.44Q27.40 0.28 24.68 0.32L24.68 0.32Q22.36 0.32 20.66-0.96Q18.96-2.24 18.96-5.84L18.96-5.84Q18.96-9.56 21.02-10.96Q23.08-12.36 26.96-12.36L26.96-12.36L28.80-12.36Q29-12.36 29-12.56L29-12.56L29-13.56Q29-14.64 28.42-15.34Q27.84-16.04 26.96-16.04L26.96-16.04Q26.28-16.04 25.82-15.62Q25.36-15.20 25.24-14.44L25.24-14.44Q25.20-13.96 24.72-13.96L24.72-13.96L19.92-14Q19.44-14 19.44-14.48L19.44-14.48Q19.64-17.40 21.72-19.14Q23.80-20.88 27-20.88L27-20.88ZM26.56-4.04Q27.52-4.04 28.26-4.66Q29-5.28 29-6.32L29-6.32L29-8.20Q29-8.40 28.80-8.40L28.80-8.40L27.16-8.40Q26.08-8.40 25.42-7.78Q24.76-7.16 24.76-6.08L24.76-6.08Q24.76-5.08 25.26-4.56Q25.76-4.04 26.56-4.04L26.56-4.04Z"></path>
    <path transform="" stroke="none" d="M44.68 0.32Q41.16 0.32 39.14-1.48Q37.12-3.28 37.12-6.40L37.12-6.40L37.12-14.16Q37.12-17.20 39.14-19.04Q41.16-20.88 44.68-20.88L44.68-20.88Q48.20-20.88 50.22-19.08Q52.24-17.28 52.24-14.40L52.24-14.40L52.24-13.68Q52.24-13.48 52.10-13.34Q51.96-13.20 51.76-13.20L51.76-13.20L47.08-13Q46.60-13 46.60-13.48L46.60-13.48L46.60-13.96Q46.60-14.84 46.06-15.44Q45.52-16.04 44.68-16.04L44.68-16.04Q43.80-16.04 43.28-15.40Q42.76-14.76 42.76-13.72L42.76-13.72L42.76-6.84Q42.76-5.80 43.28-5.16Q43.80-4.52 44.68-4.52L44.68-4.52Q45.52-4.52 46.06-5.14Q46.60-5.76 46.60-6.60L46.60-6.60L46.60-7.12Q46.60-7.32 46.74-7.46Q46.88-7.60 47.08-7.60L47.08-7.60L51.76-7.56Q51.96-7.56 52.10-7.42Q52.24-7.28 52.24-7.08L52.24-7.08L52.24-6.16Q52.24-3.20 50.22-1.44Q48.20 0.32 44.68 0.32L44.68 0.32Z"></path>
    <path transform="" stroke="none" d="M55.24 0Q55.04 0 54.90-0.14Q54.76-0.28 54.76-0.48L54.76-0.48L54.76-27.52Q54.76-27.72 54.90-27.86Q55.04-28 55.24-28L55.24-28L59.92-28Q60.12-28 60.26-27.86Q60.40-27.72 60.40-27.52L60.40-27.52L60.40-14.28Q60.40-14.12 60.48-14.10Q60.56-14.08 60.64-14.20L60.64-14.20L64.12-20.24Q64.28-20.56 64.72-20.56L64.72-20.56L69.52-20.56Q69.80-20.56 69.90-20.40Q70-20.24 69.84-20L69.84-20L65.52-13.28Q65.44-13.12 65.48-13L65.48-13L70.36-0.56Q70.40-0.48 70.40-0.36L70.40-0.36Q70.40 0 69.96 0L69.96 0L65.12 0Q64.72 0 64.60-0.40L64.60-0.40L62.04-8.32Q62-8.44 61.92-8.46Q61.84-8.48 61.80-8.36L61.80-8.36L60.48-6.28Q60.40-6.12 60.40-6.04L60.40-6.04L60.40-0.48Q60.40-0.28 60.26-0.14Q60.12 0 59.92 0L59.92 0L55.24 0Z"></path>
    <path transform="" stroke="none" d="M80.12-20.88Q83.52-20.88 85.64-19.04Q87.76-17.20 87.76-14.20L87.76-14.20L87.76-0.48Q87.76-0.28 87.62-0.14Q87.48 0 87.28 0L87.28 0L82.60 0Q82.40 0 82.26-0.14Q82.12-0.28 82.12-0.48L82.12-0.48L82.12-1.36Q82.12-1.48 82.04-1.52Q81.96-1.56 81.88-1.44L81.88-1.44Q80.52 0.28 77.80 0.32L77.80 0.32Q75.48 0.32 73.78-0.96Q72.08-2.24 72.08-5.84L72.08-5.84Q72.08-9.56 74.14-10.96Q76.20-12.36 80.08-12.36L80.08-12.36L81.92-12.36Q82.12-12.36 82.12-12.56L82.12-12.56L82.12-13.56Q82.12-14.64 81.54-15.34Q80.96-16.04 80.08-16.04L80.08-16.04Q79.40-16.04 78.94-15.62Q78.48-15.20 78.36-14.44L78.36-14.44Q78.32-13.96 77.84-13.96L77.84-13.96L73.04-14Q72.56-14 72.56-14.48L72.56-14.48Q72.76-17.40 74.84-19.14Q76.92-20.88 80.12-20.88L80.12-20.88ZM79.68-4.04Q80.64-4.04 81.38-4.66Q82.12-5.28 82.12-6.32L82.12-6.32L82.12-8.20Q82.12-8.40 81.92-8.40L81.92-8.40L80.28-8.40Q79.20-8.40 78.54-7.78Q77.88-7.16 77.88-6.08L77.88-6.08Q77.88-5.08 78.38-4.56Q78.88-4.04 79.68-4.04L79.68-4.04Z"></path>
    <path transform="" stroke="none" d="M109.20-20.88Q111.92-20.88 113.28-19.04Q114.64-17.20 114.64-13.88L114.64-13.88L114.64-0.48Q114.64-0.28 114.50-0.14Q114.36 0 114.16 0L114.16 0L109.48 0Q109.28 0 109.14-0.14Q109-0.28 109-0.48L109-0.48L109-13.52Q109-14.72 108.52-15.38Q108.04-16.04 107.24-16.04L107.24-16.04Q106.36-16.04 105.86-15.38Q105.36-14.72 105.36-13.52L105.36-13.52L105.36-0.48Q105.36-0.28 105.22-0.14Q105.08 0 104.88 0L104.88 0L100.24 0Q100.04 0 99.90-0.14Q99.76-0.28 99.76-0.48L99.76-0.48L99.76-13.52Q99.76-14.72 99.28-15.38Q98.80-16.04 98-16.04L98-16.04Q97.12-16.04 96.62-15.38Q96.12-14.72 96.12-13.52L96.12-13.52L96.12-0.48Q96.12-0.28 95.98-0.14Q95.84 0 95.64 0L95.64 0L90.96 0Q90.76 0 90.62-0.14Q90.48-0.28 90.48-0.48L90.48-0.48L90.48-20.08Q90.48-20.28 90.62-20.42Q90.76-20.56 90.96-20.56L90.96-20.56L95.64-20.56Q95.84-20.56 95.98-20.42Q96.12-20.28 96.12-20.08L96.12-20.08L96.12-19.56Q96.12-19.44 96.20-19.40Q96.28-19.36 96.36-19.44L96.36-19.44Q97.16-20.24 98.12-20.56Q99.08-20.88 99.96-20.88L99.96-20.88Q103.08-20.88 104.44-18.40L104.44-18.40L104.52-18.36Q104.64-18.36 104.80-18.60L104.80-18.60Q105.64-19.88 106.82-20.38Q108-20.88 109.20-20.88L109.20-20.88Z"></path>
    <path transform="" stroke="none" d="M136.20-20.88Q138.92-20.88 140.28-19.04Q141.64-17.20 141.64-13.88L141.64-13.88L141.64-0.48Q141.64-0.28 141.50-0.14Q141.36 0 141.16 0L141.16 0L136.48 0Q136.28 0 136.14-0.14Q136-0.28 136-0.48L136-0.48L136-13.52Q136-14.72 135.52-15.38Q135.04-16.04 134.24-16.04L134.24-16.04Q133.36-16.04 132.86-15.38Q132.36-14.72 132.36-13.52L132.36-13.52L132.36-0.48Q132.36-0.28 132.22-0.14Q132.08 0 131.88 0L131.88 0L127.24 0Q127.04 0 126.90-0.14Q126.76-0.28 126.76-0.48L126.76-0.48L126.76-13.52Q126.76-14.72 126.28-15.38Q125.80-16.04 125-16.04L125-16.04Q124.12-16.04 123.62-15.38Q123.12-14.72 123.12-13.52L123.12-13.52L123.12-0.48Q123.12-0.28 122.98-0.14Q122.84 0 122.64 0L122.64 0L117.96 0Q117.76 0 117.62-0.14Q117.48-0.28 117.48-0.48L117.48-0.48L117.48-20.08Q117.48-20.28 117.62-20.42Q117.76-20.56 117.96-20.56L117.96-20.56L122.64-20.56Q122.84-20.56 122.98-20.42Q123.12-20.28 123.12-20.08L123.12-20.08L123.12-19.56Q123.12-19.44 123.20-19.40Q123.28-19.36 123.36-19.44L123.36-19.44Q124.16-20.24 125.12-20.56Q126.08-20.88 126.96-20.88L126.96-20.88Q130.08-20.88 131.44-18.40L131.44-18.40L131.52-18.36Q131.64-18.36 131.80-18.60L131.80-18.60Q132.64-19.88 133.82-20.38Q135-20.88 136.20-20.88L136.20-20.88Z"></path>
    <path transform="" stroke="none" d="M151.84 0.32Q148.24 0.32 146.24-1.46Q144.24-3.24 144.24-6.40L144.24-6.40L144.24-14.16Q144.24-17.20 146.26-19.04Q148.28-20.88 151.84-20.88L151.84-20.88Q155.40-20.88 157.42-19.04Q159.44-17.20 159.44-14.16L159.44-14.16L159.44-6.40Q159.44-3.24 157.44-1.46Q155.44 0.32 151.84 0.32L151.84 0.32ZM151.84-4.52Q152.72-4.52 153.26-5.16Q153.80-5.80 153.80-6.84L153.80-6.84L153.80-13.76Q153.80-14.76 153.26-15.40Q152.72-16.04 151.84-16.04L151.84-16.04Q150.96-16.04 150.42-15.40Q149.88-14.76 149.88-13.76L149.88-13.76L149.88-6.84Q149.88-5.80 150.42-5.16Q150.96-4.52 151.84-4.52L151.84-4.52Z"></path>
    <path transform="" stroke="none" d=""></path>
    <path transform="" stroke="none" d="M178.96-28.04Q181.16-28.04 182.88-26.96Q184.60-25.88 185.54-23.94Q186.48-22 186.48-19.52L186.48-19.52Q186.48-15.80 184.48-13.56Q182.48-11.32 179.24-11.32L179.24-11.32L176.24-11.32Q176.04-11.32 176.04-11.12L176.04-11.12L176.04-0.48Q176.04-0.28 175.90-0.14Q175.76 0 175.56 0L175.56 0L170.88 0Q170.68 0 170.54-0.14Q170.40-0.28 170.40-0.48L170.40-0.48L170.40-27.56Q170.40-27.76 170.54-27.90Q170.68-28.04 170.88-28.04L170.88-28.04L178.96-28.04ZM178-15.72Q179.28-15.72 180.06-16.70Q180.84-17.68 180.84-19.40L180.84-19.40Q180.84-21.16 180.06-22.16Q179.28-23.16 178-23.16L178-23.16L176.24-23.16Q176.04-23.16 176.04-22.96L176.04-22.96L176.04-15.92Q176.04-15.72 176.24-15.72L176.24-15.72L178-15.72Z"></path>
    <path transform="" stroke="none" d="M198.40-20.88Q201.08-20.88 202.44-19.08Q203.80-17.28 203.80-14.04L203.80-14.04L203.80-0.48Q203.80-0.28 203.66-0.14Q203.52 0 203.32 0L203.32 0L198.64 0Q198.44 0 198.30-0.14Q198.16-0.28 198.16-0.48L198.16-0.48L198.16-13.60Q198.16-14.76 197.70-15.40Q197.24-16.04 196.36-16.04L196.36-16.04Q195.44-16.04 194.94-15.38Q194.44-14.72 194.44-13.52L194.44-13.52L194.44-0.48Q194.44-0.28 194.30-0.14Q194.16 0 193.96 0L193.96 0L189.28 0Q189.08 0 188.94-0.14Q188.80-0.28 188.80-0.48L188.80-0.48L188.80-27.52Q188.80-27.72 188.94-27.86Q189.08-28 189.28-28L189.28-28L193.96-28Q194.16-28 194.30-27.86Q194.44-27.72 194.44-27.52L194.44-27.52L194.44-19.28Q194.44-19.16 194.52-19.16L194.52-19.16Q194.60-19.16 194.80-19.36L194.80-19.36Q196.08-20.88 198.40-20.88L198.40-20.88Z"></path>
    <path transform="" stroke="none" d="M214 0.32Q210.40 0.32 208.40-1.46Q206.40-3.24 206.40-6.40L206.40-6.40L206.40-14.16Q206.40-17.20 208.42-19.04Q210.44-20.88 214-20.88L214-20.88Q217.56-20.88 219.58-19.04Q221.60-17.20 221.60-14.16L221.60-14.16L221.60-6.40Q221.60-3.24 219.60-1.46Q217.60 0.32 214 0.32L214 0.32ZM214-4.52Q214.88-4.52 215.42-5.16Q215.96-5.80 215.96-6.84L215.96-6.84L215.96-13.76Q215.96-14.76 215.42-15.40Q214.88-16.04 214-16.04L214-16.04Q213.12-16.04 212.58-15.40Q212.04-14.76 212.04-13.76L212.04-13.76L212.04-6.84Q212.04-5.80 212.58-5.16Q213.12-4.52 214-4.52L214-4.52Z"></path>
    <path transform="" stroke="none" d="M233.72-17.08Q233.72-16.88 233.58-16.74Q233.44-16.60 233.24-16.60L233.24-16.60L231-16.60Q230.80-16.60 230.80-16.40L230.80-16.40L230.80-6.88Q230.80-5.72 231.24-5.28Q231.68-4.84 232.56-4.88L232.56-4.88L232.84-4.88Q233.04-4.88 233.18-4.74Q233.32-4.60 233.32-4.40L233.32-4.40L233.32-0.48Q233.32-0.28 233.18-0.14Q233.04 0 232.84 0L232.84 0L231.24 0Q228.32 0 226.84-0.98Q225.36-1.96 225.36-4.72L225.36-4.72L225.36-16.40Q225.36-16.60 225.16-16.60L225.16-16.60L223.84-16.60Q223.64-16.60 223.50-16.74Q223.36-16.88 223.36-17.08L223.36-17.08L223.36-20.08Q223.36-20.28 223.50-20.42Q223.64-20.56 223.84-20.56L223.84-20.56L225.16-20.56Q225.36-20.56 225.36-20.76L225.36-20.76L225.36-25.20Q225.36-25.40 225.50-25.54Q225.64-25.68 225.84-25.68L225.84-25.68L230.32-25.68Q230.52-25.68 230.66-25.54Q230.80-25.40 230.80-25.20L230.80-25.20L230.80-20.76Q230.80-20.56 231-20.56L231-20.56L233.24-20.56Q233.44-20.56 233.58-20.42Q233.72-20.28 233.72-20.08L233.72-20.08L233.72-17.08Z"></path>
    <path transform="" stroke="none" d="M243.32 0.32Q239.72 0.32 237.72-1.46Q235.72-3.24 235.72-6.40L235.72-6.40L235.72-14.16Q235.72-17.20 237.74-19.04Q239.76-20.88 243.32-20.88L243.32-20.88Q246.88-20.88 248.90-19.04Q250.92-17.20 250.92-14.16L250.92-14.16L250.92-6.40Q250.92-3.24 248.92-1.46Q246.92 0.32 243.32 0.32L243.32 0.32ZM243.32-4.52Q244.20-4.52 244.74-5.16Q245.28-5.80 245.28-6.84L245.28-6.84L245.28-13.76Q245.28-14.76 244.74-15.40Q244.20-16.04 243.32-16.04L243.32-16.04Q242.44-16.04 241.90-15.40Q241.36-14.76 241.36-13.76L241.36-13.76L241.36-6.84Q241.36-5.80 241.90-5.16Q242.44-4.52 243.32-4.52L243.32-4.52Z"></path>
    <path transform="" stroke="none" d="M262.84-20.08Q262.84-20.28 262.98-20.42Q263.12-20.56 263.32-20.56L263.32-20.56L268-20.56Q268.20-20.56 268.34-20.42Q268.48-20.28 268.48-20.08L268.48-20.08L268.48-0.96Q268.48 3.48 266.38 5.88Q264.28 8.28 258.84 8.28L258.84 8.28Q257.76 8.28 257.16 8.24L257.16 8.24Q256.68 8.20 256.68 7.72L256.68 7.72L256.68 3.80Q256.68 3.28 257.20 3.36L257.20 3.36Q259.56 3.44 260.78 2.90Q262 2.36 262.42 1.28Q262.84 0.20 262.84-1.56L262.84-1.56Q262.84-1.68 262.76-1.68Q262.68-1.68 262.60-1.56L262.60-1.56Q261.88-0.60 260.86-0.22Q259.84 0.16 258.88 0.16L258.88 0.16Q256.12 0.16 254.76-1.62Q253.40-3.40 253.40-6.56L253.40-6.56L253.40-14.16Q253.40-17.40 254.78-19.14Q256.16-20.88 258.88-20.88L258.88-20.88Q261.32-20.88 262.60-19.08L262.60-19.08Q262.68-18.96 262.76-19Q262.84-19.04 262.84-19.16L262.84-19.16L262.84-20.08ZM260.92-4.72Q261.76-4.72 262.30-5.36Q262.84-6 262.84-7L262.84-7L262.84-13.76Q262.84-14.76 262.30-15.40Q261.76-16.04 260.92-16.04L260.92-16.04Q260.08-16.04 259.56-15.40Q259.04-14.76 259.04-13.76L259.04-13.76L259.04-7Q259.04-6 259.56-5.36Q260.08-4.72 260.92-4.72L260.92-4.72Z"></path>
    <path transform="" stroke="none" d="M280.52-20.84Q281.52-20.84 282.24-20.40L282.24-20.40Q282.52-20.20 282.44-19.80L282.44-19.80L281.68-15.12Q281.64-14.68 281.12-14.80L281.12-14.80Q280.68-14.96 280.04-14.96L280.04-14.96Q279.44-14.96 279-14.80L279-14.80Q278.12-14.60 277.52-13.66Q276.92-12.72 276.92-11.52L276.92-11.52L276.92-0.48Q276.92-0.28 276.78-0.14Q276.64 0 276.44 0L276.44 0L271.76 0Q271.56 0 271.42-0.14Q271.28-0.28 271.28-0.48L271.28-0.48L271.28-20.08Q271.28-20.28 271.42-20.42Q271.56-20.56 271.76-20.56L271.76-20.56L276.44-20.56Q276.64-20.56 276.78-20.42Q276.92-20.28 276.92-20.08L276.92-20.08L276.92-18.44Q276.92-18.28 276.98-18.26Q277.04-18.24 277.12-18.36L277.12-18.36Q278.24-20.84 280.52-20.84L280.52-20.84Z"></path>
    <path transform="" stroke="none" d="M291.52-20.88Q294.92-20.88 297.04-19.04Q299.16-17.20 299.16-14.20L299.16-14.20L299.16-0.48Q299.16-0.28 299.02-0.14Q298.88 0 298.68 0L298.68 0L294 0Q293.80 0 293.66-0.14Q293.52-0.28 293.52-0.48L293.52-0.48L293.52-1.36Q293.52-1.48 293.44-1.52Q293.36-1.56 293.28-1.44L293.28-1.44Q291.92 0.28 289.20 0.32L289.20 0.32Q286.88 0.32 285.18-0.96Q283.48-2.24 283.48-5.84L283.48-5.84Q283.48-9.56 285.54-10.96Q287.60-12.36 291.48-12.36L291.48-12.36L293.32-12.36Q293.52-12.36 293.52-12.56L293.52-12.56L293.52-13.56Q293.52-14.64 292.94-15.34Q292.36-16.04 291.48-16.04L291.48-16.04Q290.80-16.04 290.34-15.62Q289.88-15.20 289.76-14.44L289.76-14.44Q289.72-13.96 289.24-13.96L289.24-13.96L284.44-14Q283.96-14 283.96-14.48L283.96-14.48Q284.16-17.40 286.24-19.14Q288.32-20.88 291.52-20.88L291.52-20.88ZM291.08-4.04Q292.04-4.04 292.78-4.66Q293.52-5.28 293.52-6.32L293.52-6.32L293.52-8.20Q293.52-8.40 293.32-8.40L293.32-8.40L291.68-8.40Q290.60-8.40 289.94-7.78Q289.28-7.16 289.28-6.08L289.28-6.08Q289.28-5.08 289.78-4.56Q290.28-4.04 291.08-4.04L291.08-4.04Z"></path>
    <path transform="" stroke="none" d="M316.96-14.20Q317.04-13.40 317.04-10.28L317.04-10.28L317.04-6.52Q316.96-3.08 315.64-1.38Q314.32 0.32 311.56 0.32L311.56 0.32Q309.24 0.32 307.92-1.36L307.92-1.36Q307.84-1.48 307.76-1.46Q307.68-1.44 307.68-1.32L307.68-1.32L307.68 6.96Q307.68 7.16 307.54 7.30Q307.40 7.44 307.20 7.44L307.20 7.44L302.52 7.44Q302.32 7.44 302.18 7.30Q302.04 7.16 302.04 6.96L302.04 6.96L302.04-20.08Q302.04-20.28 302.18-20.42Q302.32-20.56 302.52-20.56L302.52-20.56L307.20-20.56Q307.40-20.56 307.54-20.42Q307.68-20.28 307.68-20.08L307.68-20.08L307.68-19.36Q307.68-19.24 307.76-19.20Q307.84-19.16 307.92-19.28L307.92-19.28Q309.24-20.88 311.64-20.88L311.64-20.88Q314.40-20.88 315.62-19.20Q316.84-17.52 316.96-14.20L316.96-14.20ZM311.36-6.60Q311.44-7.76 311.44-10.24L311.44-10.24Q311.44-12.72 311.40-13.92L311.40-13.92Q311.32-14.92 310.86-15.50Q310.40-16.08 309.56-16.08L309.56-16.08Q308.76-16.08 308.26-15.50Q307.76-14.92 307.68-13.92L307.68-13.92L307.68-7.36L307.72-6.64Q307.80-5.64 308.26-5.06Q308.72-4.48 309.52-4.48L309.52-4.48Q310.32-4.48 310.80-5.04Q311.28-5.60 311.36-6.60L311.36-6.60Z"></path>
    <path transform="" stroke="none" d="M329.44-20.88Q332.12-20.88 333.48-19.08Q334.84-17.28 334.84-14.04L334.84-14.04L334.84-0.48Q334.84-0.28 334.70-0.14Q334.56 0 334.36 0L334.36 0L329.68 0Q329.48 0 329.34-0.14Q329.20-0.28 329.20-0.48L329.20-0.48L329.20-13.60Q329.20-14.76 328.74-15.40Q328.28-16.04 327.40-16.04L327.40-16.04Q326.48-16.04 325.98-15.38Q325.48-14.72 325.48-13.52L325.48-13.52L325.48-0.48Q325.48-0.28 325.34-0.14Q325.20 0 325.00 0L325.00 0L320.32 0Q320.12 0 319.98-0.14Q319.84-0.28 319.84-0.48L319.84-0.48L319.84-27.52Q319.84-27.72 319.98-27.86Q320.12-28 320.32-28L320.32-28L325.00-28Q325.20-28 325.34-27.86Q325.48-27.72 325.48-27.52L325.48-27.52L325.48-19.28Q325.48-19.16 325.56-19.16L325.56-19.16Q325.64-19.16 325.84-19.36L325.84-19.36Q327.12-20.88 329.44-20.88L329.44-20.88Z"></path>
    <path transform="" stroke="none" d="M337.44 7.96Q337.20 7.96 337.20 7.48L337.20 7.48L337.20 3.80Q337.20 3.32 337.40 3.32L337.40 3.32L337.60 3.32Q339.60 3.32 340.48 2.68Q341.36 2.04 341.52 0.12L341.52 0.12L341.48-0.12L336.44-20.04L336.44-20.20Q336.44-20.56 336.88-20.56L336.88-20.56L341.92-20.56Q342.40-20.56 342.44-20.12L342.44-20.12L344.28-8.24Q344.32-8.08 344.40-8.08Q344.48-8.08 344.52-8.24L344.52-8.24L346.28-20.12Q346.32-20.56 346.80-20.56L346.80-20.56L351.84-20.52Q352.40-20.52 352.28-20L352.28-20L347.00 0.76Q346.20 3.68 345.30 5.14Q344.40 6.60 342.66 7.28Q340.92 7.96 337.68 7.96L337.68 7.96L337.44 7.96Z"></path>
    </g>
        </svg>
      </g></svg>