<?xml version="1.0" ?><!DOCTYPE svg  PUBLIC '-//W3C//DTD SVG 1.1//EN'  'http://www.w3.org/Graphics/SVG/1.1/DTD/svg11.dtd'><svg enable-background="new 0 0 128 128" id="Layer_1" version="1.1" viewBox="0 0 128 128" xml:space="preserve" xmlns="http://www.w3.org/2000/svg" xmlns:xlink="http://www.w3.org/1999/xlink"><g><path d="M96.7,91.1H75.9l0,0l-0.2,0l0,0l-0.2,0l0,0l-0.2,0l0,0l-0.2,0l0,0l-0.2,0l0,0l-0.2,0l0,0l-0.2,0l0,0l-0.2,0   l0,0l-0.2,0l0,0l-0.2,0l0,0l-0.2,0l0,0l-0.2,0l0,0l-0.2,0v0l-0.2,0l0,0l-0.2,0l0,0l-0.2,0l0,0l-0.2,0l0,0l-0.2,0v0l-0.2,0l0,0   l-0.2,0l0,0l-0.2,0l0,0l-0.2,0l0,0l-0.1,0l0,0l-0.1,0v0l-0.1,0v0l-0.1,0v0l-0.1-0.1l0,0l-0.1-0.1l0,0l-0.1-0.1l0,0l-0.1-0.1v0   l-0.1-0.1l0,0l-0.1-0.1v0l-0.1-0.1v0L70.6,90l0,0l-0.1-0.1l0,0l-0.1-0.1v0l-0.1-0.1v0l-0.1-0.1l0,0l-0.1-0.1l0,0l-0.1-0.1l0,0   l-0.1-0.1v0l-0.1-0.1v0l-0.1-0.1v0l-0.1-0.1v0l-0.1-0.1v0L69,89.1v0L68.9,89v0l-0.1-0.1v0l-0.1-0.1v0l-0.1-0.1v0l-0.1-0.1v0   l-0.1-0.1v0l-0.1-0.1v0L68,88.4v0l-0.1-0.1v0l-0.1-0.1v0l-0.1-0.1v0L67.5,88v0l-0.1-0.1v0l-0.1-0.1v0l-0.1-0.1v0l-0.1-0.1v0   L67,87.5v0l-0.1-0.1v0l-0.1-0.1v0l-0.1-0.1v0l-0.1-0.1v0l-0.1-0.1v0l-0.1-0.1v0l-0.1-0.1v0l-0.1-0.1v0L66,86.5v0L66,86.4v0   l-0.1-0.1v0l-0.1-0.1v0L65.7,86v0l-0.1-0.1v0l-0.1-0.1v0l-0.1-0.1v0l-0.1-0.1v0l-0.1-0.1v0l-0.1-0.1v0l-0.1-0.1v0L65,85v0l-0.1-0.1   v0l-0.1-0.1v0l-0.1-0.1v0l-0.1-0.1l-0.1-0.1l-0.1-0.1L64.5,84v0l-0.1-0.1v0l-0.1-0.1l-0.1-0.1l-0.1-0.1v0l-0.1-0.1l-0.1-0.1   L64,83.1v0L64,82.9l-0.1-0.1l-0.1-0.1l-0.1-0.1v0l0-0.1v0l0-0.1v0l0-0.1l0-0.2l0-0.2l0-0.2l0-0.2l0-0.2v0l0-0.2l0-0.2l0-0.2l0-0.2   l0-0.2l0-0.2l0-0.2l0-0.2l0-0.2l0-0.2l0-0.2l0-0.2l0-0.2l0-0.2l0-0.2l0-0.2l0-0.2l0-0.2v0v0l0-0.2v0l0-0.2v0l0-0.2v0l0-0.2v0l0-0.2   l0-0.2v0l0-0.2l0-0.2v0l0-0.2v0l0-0.2l0-0.2v0l0-0.2l0-0.2v0l0-0.2v0l0-0.2v0l0-0.2l0-0.2l0-0.2l0-0.2l0-0.2l0-0.2v0l0-0.2l0-0.2v0   l0-0.1l0-0.1l0-0.1l0.1-0.1l0.1-0.1v0l0.1-0.1l0.1-0.1l0.1-0.1l0.1-0.1l0.1-0.1v0l0.1-0.1l0.1-0.1v0l0.1-0.1v0l0.1-0.1v0l0.1-0.1   l0.1-0.1v0l0.1-0.1l0.1-0.1l0.1-0.1l0.1-0.1v0l0.1-0.1v0l0.1-0.1l0.1-0.1v0l0.1-0.1l0.1-0.1l0.1-0.1v0l0.1-0.1v0l0.1-0.1v0l0.1-0.1   v0l0.1-0.1v0l0.1-0.1v0l0.1-0.1v0l0.1-0.1v0l0.1-0.1v0l0.1-0.1v0l0.1-0.1v0l0.1-0.1v0l0.1-0.1v0l0.1-0.1v0l0.1-0.1v0l0.1-0.1v0   l0.1-0.1v0l0.1-0.1v0l0.1-0.1v0l0.1-0.1v0l0.1-0.1v0l0.1-0.1l0.1-0.1v0l0.1-0.1l0.1-0.1v0l0.1-0.1v0l0.1-0.1v0l0.1-0.1v0l0.1-0.1v0   l0.1-0.1v0l0.1-0.1v0l0.1-0.1v0l0.1-0.1l0.1-0.1l0.1-0.1v0l0.1-0.1l0.1-0.1v0l0.1-0.1v0l0.1-0.1l0.1-0.1h0c0.1-0.1,0.3-0.1,0.4-0.2   l0.1-0.1l0.1-0.1h0l0.1-0.1h0l0.1-0.1l0.1-0.1l0.1-0.1h0l0.1-0.1l0.1-0.1h0c0.1,0,0.2-0.1,0.3-0.1h0l0.1-0.1l0.1,0l0.1,0l0.1,0h0   l0.1,0h0l0.2,0h0l0.2,0h0l0.2,0h0l0.2,0l0.2,0h0l0.2,0h0l0.2,0h0l0.2,0h0l0.2,0l0.2,0h0l0.2,0h0l0.2,0h0l0.2,0h0l0.2,0h0l0.2,0h0   l0.2,0h0l0.2,0h0l0.2,0h0l0.2,0h0l0.2,0h0l0.2,0h0l0.2,0h0h20.8v-9.4c0-2.1-0.8-3.9-2.2-5.3c-1.4-1.4-3.2-2.2-5.3-2.2h-2.9h-7.2H46   h-7.2h-12h0l0,0l0,0h0l0,0l-0.1,0h0l-0.1,0l0,0l0,0l0,0l0,0l0,0l0,0l0,0l0,0l0,0l0,0l0,0l0,0l0,0l0,0l0,0l0,0l0,0l0,0l0,0l0,0l0,0   l0,0l0,0l0,0l-0.1,0l0,0c-1.7,0.2-3.3,1-4.4,2.2c-1.4,1.4-2.2,3.2-2.2,5.3v44.3c0,2.1,0.8,3.9,2.2,5.3c1.4,1.4,3.2,2.2,5.3,2.2   h62.4c2.1,0,3.9-0.8,5.3-2.2c1.4-1.4,2.2-3.2,2.2-5.3v-0.3V91.1z M98.7,87.1h5.2l0,0h3.5c0.3,0,0.6-0.1,0.8-0.4   c0.2-0.2,0.4-0.5,0.4-0.8v-15c0-0.3-0.1-0.6-0.3-0.8l0,0c-0.2-0.2-0.5-0.3-0.8-0.3H104h-5.2H75.9h0l-0.1,0h0l-0.1,0h0l-0.1,0h0   l-0.1,0h0l-0.1,0h0l-0.1,0h0l-0.1,0h0l-0.1,0h0l-0.1,0h0l-0.1,0h0l-0.1,0h0l-0.1,0h0l-0.1,0h0l-0.1,0h0l-0.1,0h0l-0.1,0h0l-0.1,0h0   l-0.1,0l-0.1,0l-0.1,0h0l-0.1,0h0l-0.1,0h0l-0.1,0h0l-0.1,0h0l-0.1,0h0l-0.1,0l-0.1,0v0l-0.2,0.1h0l-0.1,0h0l-0.2,0.1h0l-0.1,0v0   l-0.1,0l-0.1,0h0l-0.1,0l-0.1,0l-0.1,0l-0.1,0h0l-0.1,0l-0.1,0.1l-0.1,0.1l-0.1,0.1L71.4,71L71.3,71v0l-0.1,0.1v0l-0.1,0.1L71,71.2   v0l-0.1,0.1v0l-0.1,0.1v0l-0.1,0.1v0l-0.1,0.1v0l-0.1,0.1v0l-0.1,0.1v0l-0.1,0.1v0l-0.2,0.1v0l-0.1,0.1v0l-0.1,0.1v0L70,72v0   l-0.1,0.1l-0.1,0.1v0l-0.1,0.1v0l-0.1,0.1v0l-0.1,0.1v0l-0.1,0.1v0l-0.1,0.1v0l-0.1,0.1v0l-0.1,0.1l-0.1,0.1l-0.1,0.1l-0.1,0.1   L69.1,73v0L69,73.1L69,73.1l-0.1,0.1l-0.1,0.1v0l-0.1,0.1v0l-0.1,0.1v0l-0.1,0.1l-0.1,0.1l-0.1,0.1v0l-0.1,0.1v0l-0.1,0.1L68.4,74   l-0.1,0.1v0l-0.1,0.1l-0.1,0.1l0,0.1v0l0,0.1l0,0.1l0,0.1v0l0,0.1l0,0.1v0l0,0.1l0,0.1l0,0.1l0,0.1l0,0.1v0l0,0.1v0l0,0.1v0l0,0.1   l0,0.1l0,0.1v0l0,0.1l0,0.1l0,0.1l0,0.1l0,0.1l0,0.1l0,0.1l0,0.1v0l0,0.1v0l0,0.1l0,0.1l0,0.1v0l0,0.1v0l0,0.1l0,0.1v0l0,0.1l0,0.1   v0l0,0.1v0l0,0.1v0l0,0.1l0,0.1v0l0,0.1v0l0,0.1v0l0,0.1v0v0l0,0.1l0,0.1l0,0.1l0,0.1l0,0.1l0,0.1l0,0.1l0,0.1l0,0.1l0,0.1l0,0.1   l0,0.1l0,0.1l0,0.1l0,0.1l0,0.1l0,0.1l0,0.1v0l0,0.1v0l0,0.1l0,0.1l0,0.1l0,0.1l0,0.1l0,0.1l0,0.1v0l0,0.1v0l0,0.1l0,0.1l0,0.1   l0,0.1l0,0.1l0,0.1v0l0,0.1v0l0,0.1l0,0.1v0l0,0.1v0l0,0.1v0l0,0.1l0,0.1v0l0.1,0.1v0l0.1,0.1v0l0.1,0.1v0l0.1,0.1v0l0.1,0.1v0   l0.1,0.1v0l0.1,0.1v0l0.1,0.1v0l0.1,0.1v0l0.1,0.1v0l0.1,0.1v0l0.1,0.1v0l0.1,0.1v0l0.1,0.1v0l0.1,0.1v0l0.1,0.1l0.1,0.1v0l0.1,0.1   v0l0.1,0.1v0l0.1,0.1v0l0.1,0.1v0l0.1,0.1v0l0.1,0.1v0l0.1,0.1v0l0.1,0.1v0l0.1,0.1v0l0.1,0.1v0l0.1,0.1v0l0.1,0.1v0l0.1,0.1v0   l0.1,0.1v0l0.1,0.1l0,0l0.1,0.1v0l0.1,0.1v0l0.1,0.1v0l0.1,0.1v0l0.1,0.1v0l0.1,0.1v0l0.1,0.1v0l0.1,0.1v0l0.1,0.1v0l0.1,0.1v0   l0.1,0.1v0l0.1,0.1v0l0.1,0.1v0l0.1,0.1v0l0.1,0.1v0l0.1,0.1v0l0.1,0l0,0l0.1,0v0l0.1,0v0l0.1,0v0l0.1,0l0,0l0.1,0v0l0.1,0v0l0.1,0   l0,0l0.1,0l0,0l0.1,0l0,0l0.1,0l0,0l0.1,0l0,0l0.1,0v0l0.1,0v0l0.1,0l0,0l0.1,0l0,0l0.1,0l0,0l0.1,0l0,0l0.1,0l0,0l0.1,0l0,0l0.1,0   v0l0.1,0v0l0.1,0l0,0l0.1,0l0,0l0.1,0l0,0l0.1,0l0,0l0.1,0l0,0l0.1,0l0,0l0.1,0l0,0l0.1,0l0,0l0.1,0l0,0l0.1,0l0,0l0.1,0l0,0l0.1,0   l0,0l0.1,0l0,0l0.1,0l0,0l0.1,0l0,0l0.1,0l0,0l0.1,0l0,0l0.1,0H98.7z M101.9,91.1h-1.2v4.7l0.1-0.2c0.7-1.1,1.1-2.5,1.1-3.9V91.1z    M88.3,44.7h0.9c3.2,0,6.1,1.3,8.1,3.4c2.1,2.1,3.4,5,3.4,8.1v9.4h1.2V47.4c0-2.1-0.8-3.9-2.2-5.3c-1.4-1.4-3.2-2.2-5.3-2.2h-6.2   V44.7z M76.7,75c1.9,0,3.4,1.5,3.4,3.4c0,1.9-1.5,3.4-3.4,3.4s-3.4-1.5-3.4-3.4C73.3,76.5,74.8,75,76.7,75z M36.8,35.9v-11   c0-2.5,1-4.7,2.6-6.3c1.6-1.6,3.8-2.6,6.3-2.6h33.6c2.5,0,4.7,1,6.3,2.6c1.6,1.6,2.6,3.8,2.6,6.3v11h6.2c3.2,0,6.1,1.3,8.1,3.4   c2.1,2.1,3.4,5,3.4,8.1v18.3h1.5c1.4,0,2.7,0.6,3.7,1.5l0,0l0,0l0,0c0.9,1,1.5,2.3,1.5,3.7v15c0,1.4-0.6,2.7-1.5,3.7   c-0.9,0.9-2.3,1.5-3.7,1.5H106v0.6c0,2.2-0.6,4.3-1.7,6c-0.9,1.5-2.1,2.7-3.6,3.6c-0.2,2.8-1.5,5.4-3.4,7.3c-2.1,2.1-5,3.4-8.1,3.4   H26.8c-3.2,0-6.1-1.3-8.1-3.4c-2.1-2.1-3.4-5-3.4-8.1V56.2c0-3.2,1.3-6.1,3.4-8.1c0.6-0.6,1.2-1.1,1.9-1.5c0.2-2.8,1.5-5.4,3.4-7.3   c2.1-2.1,5-3.4,8.1-3.4H36.8z M48.1,31.9v12.8h29V31.9c-1.1-0.3-2-0.9-2.8-1.7c-0.8-0.8-1.4-1.7-1.7-2.8h-20   c-0.3,1.1-0.9,2-1.7,2.8C50.1,31,49.1,31.6,48.1,31.9z M44,44.7V30.2c0-1.1,0.9-2,2-2c0.8,0,1.5-0.3,2-0.8c0.5-0.5,0.8-1.2,0.8-2   c0-1.1,0.9-2,2-2h23.4c1.1,0,2,0.9,2,2c0,0.8,0.3,1.5,0.8,2c0.5,0.5,1.2,0.8,2,0.8c1.1,0,2,0.9,2,2v14.5h3.2v-6.8V24.8   c0-1.3-0.5-2.6-1.4-3.4c-0.9-0.9-2.1-1.4-3.4-1.4H45.7c-1.3,0-2.6,0.5-3.4,1.4c-0.9,0.9-1.4,2.1-1.4,3.4v13.1v6.8H44z M26.8,44.7   h10v-4.8h-4.7c-2.1,0-3.9,0.8-5.3,2.2c-0.8,0.8-1.4,1.7-1.8,2.7c0.3,0,0.6-0.1,0.9-0.1l0,0l0.1,0l0,0l0,0l0,0l0.1,0l0,0l0,0l0,0   l0,0l0,0l0,0l0,0l0,0l0,0l0,0l0,0l0,0l0,0l0,0l0,0l0,0l0,0l0,0l0,0l0,0l0,0l0,0l0,0h0l0,0L26.8,44.7L26.8,44.7L26.8,44.7L26.8,44.7   z" fill="#2B2D03"/><path clip-rule="evenodd" d="M89.2,48.7H26.8c-4.1,0-7.5,3.3-7.5,7.5v44.3   c0,4.1,3.4,7.5,7.5,7.5h62.4c4.1,0,7.5-3.4,7.5-7.5v-9.4H75.9l-2.6-0.3L73,90.8l-0.9-0.2l-0.1,0l-0.1,0l-0.6-0.2l-0.3-0.1l-0.1-0.1   l-0.4-0.2l-0.1-0.1l-0.5-0.3l-0.1-0.1l-0.1-0.1l-0.1-0.1l-0.1-0.1L69,89.1L68.9,89l-0.1-0.1l-0.3-0.2l-0.1-0.1l-0.1-0.1l-0.1-0.1   L68,88.4l-0.1-0.1l-0.1-0.1l-0.1-0.1l-0.2-0.2l-0.1-0.1l-0.1-0.1l-0.1-0.1L67,87.5l-0.1-0.1l-1.6-2l-0.9-1.6c-1-2-1.3-4.3-1.1-6.5   l0.5-2.5l1.6-3.5l1.1-1.4l0.4-0.4l0.1-0.1l0.1-0.1l0.1-0.1l0.1-0.1l0.1-0.1l0.2-0.2l0.2-0.2l0.1-0.1l0.1-0.1l0.1-0.1l0.1-0.1   l0.1-0.1l0.1-0.1l0.1-0.1l0.4-0.3l0.3-0.2l0.1-0.1c2-1.1,4.1-1.7,6.3-1.7h20.8v-9.4C96.7,52.1,93.3,48.7,89.2,48.7z" fill="#FFE64C" fill-rule="evenodd"/><path clip-rule="evenodd" d="M36.8,44.7v-4.8h-4.7c-3.2,0-6,2-7,4.9l1.8-0.1H36.8z" fill="#EAB43B" fill-rule="evenodd"/><path clip-rule="evenodd" d="M48.1,31.9v12.8h29V31.9c-2.1-0.7-3.8-2.4-4.5-4.5h-20   C51.9,29.6,50.2,31.3,48.1,31.9z" fill="#C0D863" fill-rule="evenodd"/><path clip-rule="evenodd" d="M46,28.2c1.5,0,2.8-1.3,2.8-2.8c0-1.1,0.9-2,2-2h23.4   c1.1,0,2,0.9,2,2c0,1.5,1.3,2.8,2.8,2.8c1.1,0,2,0.9,2,2v14.5h3.2V24.8c0-2.7-2.2-4.9-4.9-4.9H45.7c-2.7,0-4.9,2.2-4.9,4.9v19.9H44   V30.2C44,29.1,44.9,28.2,46,28.2z" fill="#C0D863" fill-rule="evenodd"/><path clip-rule="evenodd" d="M88.3,39.9v4.8h0.9c6.3,0,11.5,5.2,11.5,11.5v9.4h1.2V47.4   c0-4.1-3.4-7.5-7.5-7.5H88.3z" fill="#EAB43B" fill-rule="evenodd"/><path clip-rule="evenodd" d="M76.7,75c1.9,0,3.4,1.5,3.4,3.4c0,1.9-1.5,3.4-3.4,3.4   s-3.4-1.5-3.4-3.4C73.3,76.5,74.8,75,76.7,75z M107.5,69.7l-31.7,0l-2.3,0.3L73,70.2l-0.6,0.2L71.3,71l-0.1,0.1L71,71.2l-0.1,0.1   l-0.2,0.1l-0.2,0.1l-0.2,0.1l-0.2,0.1l-0.1,0.1L70,72l-0.2,0.1l-0.1,0.1l-0.1,0.1l-1,1.2l-0.8,1.4c-0.1,0.4-0.7,1.5-0.8,3.3   l0.2,2.2c0.2,1.4,1.6,3.3,1.6,3.3l0.8,0.9l0.1,0.1l0.1,0.1l0.1,0.1l0.1,0.1l0.1,0.1l0.1,0.1l0.1,0.1l0.2,0.1l0.2,0.1l0.1,0.1   l0.1,0.1l0.1,0.1l0.1,0.1l0.1,0.1l0.1,0.1l0.1,0.1l0.1,0.1l0.2,0.1l0.1,0.1l0.2,0.1l0.2,0.1l0.1,0l0.1,0l0.2,0.1l0.1,0l0.6,0.2   l0.1,0l0.7,0.2l0.1,0l1.5,0.2l23.3,0l8.7,0c0.7,0,1.2-0.5,1.2-1.2v-15C108.7,70.3,108.1,69.7,107.5,69.7z" fill="#EAB43B" fill-rule="evenodd"/><path clip-rule="evenodd" d="M100.7,91.1v4.7c1-1.6,1.2-2.8,1.2-4.7H100.7z" fill="#EAB43B" fill-rule="evenodd"/></g></svg>