<?xml version="1.0" ?><!DOCTYPE svg  PUBLIC '-//W3C//DTD SVG 1.0//EN'  'http://www.w3.org/TR/2001/REC-SVG-20010904/DTD/svg10.dtd'><svg enable-background="new 0 0 512 512" id="Layer_1" version="1.0" viewBox="0 0 512 512" xml:space="preserve" xmlns="http://www.w3.org/2000/svg" xmlns:xlink="http://www.w3.org/1999/xlink"><g><g><g><path d="M462.7,452.8L437,411.5c-3.2-6.4-4.8-13.4-4.8-20.5V263.8c0-82.6-66.9-149.5-149.5-149.5h-69     c-82.6,0-149.5,66.9-149.5,149.5V391c0,7.1-1.6,14.1-4.8,20.5l-25.7,41.3c-2.6,4.3-4,9.2-4,14.3c0,7.4,3,14.1,7.9,18.9     c4.8,4.8,11.5,7.8,18.9,7.9h383.5c14.8-0.1,26.7-12,26.8-26.8C466.7,462,465.3,457.1,462.7,452.8z M278.2,412.8h-44.4     c-12.5,0-23.9-5.8-32.1-15c-8.2-9.2-13.3-22-13.4-36c0-5.4,4.3-9.7,9.7-9.7h7.7c2.7,0,5.1,1.1,6.9,2.8c1.8,1.8,2.8,4.2,2.8,6.9     c0,11.4,8.3,20.6,18.4,20.6h8.7v-57.8l-24.7-10.3c-17.9-7.4-29.7-26.6-29.7-48c0.1-28.2,20.5-50.9,45.7-50.8h8.7v-15.2     c0-4.2,1.5-8,4-10.7c2.5-2.7,5.8-4.4,9.6-4.4c7.5,0,13.5,6.8,13.5,15.2v15.2h8.7c12.5,0,23.9,5.8,32.1,15     c8.2,9.2,13.3,22,13.4,36c0,5.4-4.3,9.7-9.7,9.7h-7.7c-2.7,0-5.1-1.1-6.9-2.8c-1.8-1.8-2.8-4.2-2.8-6.9     c0-11.4-8.3-20.6-18.4-20.6h-8.7v57.8l24.7,10.3c17.9,7.4,29.7,26.6,29.7,48C323.8,390.2,303.3,412.9,278.2,412.8z" fill="#FBB040"/><g><path d="M278.2,405.3c-10.5,0-20.9,0-31.4,0c-4.3,0-8.6,0-12.9,0c-10.1,0-19-4.6-25.9-11.6c-7.8-8-11.7-19.2-12.2-30.2      c-0.2-3.4,1.2-3.9,4.2-3.9c2.5,0,6.3-0.9,7.8,1.5c0.8,1.3,0.5,5.4,0.7,7c0.5,2.9,1.8,5.7,3.1,8.3c2.3,4.6,6.5,8.3,10.9,10.8      c6.2,3.3,13.2,2.8,19.9,2.8c4.1,0,7.5-3.4,7.5-7.5c0-19.3,0-38.6,0-57.8c0-3.7-2.4-5.9-5.5-7.2c-7.7-3.2-15.5-6.5-23.2-9.7      c-0.4-0.2-0.8-0.4-1.3-0.5c-0.3-0.1-0.2-0.1,0.4,0.1c-1.3-0.5-2.5-1.2-3.7-1.9c-3.5-1.9-6.4-4.5-9.2-7.4      c-5.7-6-9.1-13.8-10.9-21.8c-3.5-15.7,1.8-32.8,13.5-43.9c9.3-8.8,20.4-9.4,32.4-9.4c4.1,0,7.5-3.4,7.5-7.5      c0-4.8-2.6-24.3,6.6-22.8c8.2,1.3,5.5,17.2,5.5,22.8c0,4.1,3.4,7.5,7.5,7.5c10.9,0,20.9,0.4,30,7.5c5.8,4.5,10.3,10.7,13.1,17.4      c1.6,3.8,2.7,7.9,3.2,11.9c0.3,2.2,1.6,7-0.7,8.5c-1.5,1-7.8,0.9-9.5,0.2c-2.5-1.1-1.9-6.3-2.2-8.5c-0.6-3.7-2.4-7.4-4.5-10.5      c-4.2-6.2-10.7-10.2-18.1-11.1c-3.7-0.4-7.5-0.2-11.3-0.2c-4.1,0-7.5,3.4-7.5,7.5c0,19.3,0,38.5,0,57.8c0,3.7,2.4,5.9,5.5,7.2      c7.2,3,14.4,6,21.6,9.1c9.7,4.1,18.3,11.8,23.4,22.9C324.4,368.4,308.4,405,278.2,405.3c-9.7,0.1-9.7,15.1,0,15      c38.8-0.5,60.3-41.9,50.6-76.5c-4.7-16.9-16.9-30.5-33-37.2c-8.1-3.4-16.2-6.8-24.3-10.2c1.8,2.4,3.7,4.8,5.5,7.2      c0-19.3,0-38.5,0-57.8c-2.5,2.5-5,5-7.5,7.5c3.8,0,8.8-0.9,12.3,0.7c8.4,3.8,6.4,13.6,9.4,20.6c3.4,8,12.5,9,19.9,9      c8.3,0,16.1-3,19.1-11.4c3-8.6,0-20.1-3.1-28.3c-3.3-8.8-8.7-16.8-15.8-23.1c-7-6.3-15.7-10.5-24.9-12.1      c-5.6-1-11.2-0.8-16.8-0.8c2.5,2.5,5,5,7.5,7.5c0-5,0-10.1,0-15.1c0-11.1-8.1-22.1-19.7-22.7c-13.1-0.7-21.8,10.4-22.3,22.6      c-0.2,5,0,10.1,0,15.2c2.5-2.5,5-5,7.5-7.5c-5.8,0-11.4,0-17.2,0.8c-9.3,1.3-17.8,6.2-24.9,12.2c-14.9,12.7-21.5,33.9-19.3,52.9      c2.3,19.9,14.2,38.8,32.9,46.9c8.8,3.8,17.6,7.4,26.4,11.1c-1.8-2.4-3.7-4.8-5.5-7.2c0,19.3,0,38.6,0,57.8c2.5-2.5,5-5,7.5-7.5      c-6.4,0-13.1,1.1-17.2-5c-3.3-4.8-2.3-11.1-4.5-16.4c-2.5-5.9-9.7-9-15.7-9c-3.4,0-7-0.3-10.4,0.4c-6.6,1.4-11.1,6-13.3,12.3      c-2,5.8-0.1,13.8,1.2,19.6c1.5,6.7,4.4,13.1,8,18.8c7,11.1,18,19.3,30.5,22.9c6.4,1.9,13.1,1.7,19.8,1.7c12.4,0,24.9,0,37.3,0      C287.9,420.3,287.9,405.3,278.2,405.3z"/><path d="M469.1,449c-6.5-10.5-13.1-21.1-19.6-31.6c-2.6-4.1-5.6-8.2-7.4-12.8c-2.1-5.3-2.5-10.8-2.5-16.4c0-27.3,0-54.6,0-81.9      c0-26.1,1.7-52.9-4.2-78.6c-10-43.6-39.7-81.4-78.9-102.5c-20.2-10.9-42.7-16.8-65.5-18.2c-11.6-0.7-23.4-0.2-35-0.2      c-32.6,0-65.2-1.9-96.4,9.6c-42.4,15.5-75.9,49.1-92.5,90.9c-7.2,18.1-10.5,37.7-10.5,57.2c0,9.1,0,18.3,0,27.4      c0,29.7,0,59.4,0,89.1c0,9.4,0.7,19.5-4.5,27.8c-7.3,11.7-14.6,23.4-21.8,35.1c-3.9,6.2-7.3,12.3-8,19.8      c-1.2,13.6,5.6,26.2,17.2,33.2c6.8,4.1,14.3,4.5,21.9,4.5c17.1,0,34.1,0,51.2,0c62,0,123.9,0,185.9,0c45.6,0,91.2,0,136.8,0      c4.5,0,8.8-0.1,13.2-1.1C471.1,495,480.1,468.1,469.1,449c-4.8-8.4-17.8-0.8-13,7.6c7.9,13.7-1.6,29.8-17.3,29.8      c-4.5,0-8.9,0-13.4,0c-21.2,0-42.4,0-63.7,0c-63.5,0-127.1,0-190.6,0c-38.2,0-76.4,0-114.5,0c-7.9,0-14.2-4.5-17.9-11.3      c-3.9-7.4-0.9-15,3.1-21.4c7.4-11.9,14.8-23.9,22.2-35.8c6.2-10,7.4-21.3,7.4-32.8c0-12.5,0-25,0-37.5c0-27.1,0-54.2,0-81.2      c0-38.3,13.8-74.5,40.7-102c27.7-28.4,65.4-42.5,104.8-42.5c14.3,0,28.5,0,42.8,0c12.2,0,24.5-0.4,36.7,0.6      c43.4,3.8,83.3,29.3,106.4,66c11.7,18.5,18.9,39.8,21,61.5c0.9,9.4,0.6,18.9,0.6,28.3c0,30.1,0,60.3,0,90.4c0,7.5,0,14.9,0,22.4      c0,17.3,9.2,29.7,17.9,43.6c4.5,7.3,9.1,14.6,13.6,21.9C461.3,464.8,474.2,457.3,469.1,449z"/></g></g><g><path d="M324.4,55.9l-41.8,58.5h-69l-41.8-58.5c-6.6-9.2,0-22,11.3-22h129.8C324.4,33.8,331,46.6,324.4,55.9z" fill="#F7941E"/><g><path d="M317.9,52.1c-13.9,19.5-27.8,39-41.8,58.5c2.2-1.2,4.3-2.5,6.5-3.7c-23,0-46,0-69,0c2.2,1.2,4.3,2.5,6.5,3.7      C206.4,91.4,192.7,72.2,179,53c-2.7-3.7-3.4-10.8,2.9-11.6c2.2-0.3,4.5-0.1,6.7-0.1c12.2,0,24.3,0,36.5,0c21.7,0,43.4,0,65.1,0      c6.7,0,13.3,0,20,0c0.9,0,1.9,0,2.8,0C319.1,41.3,320.8,47.7,317.9,52.1c-5.3,8.1,7.7,15.6,13,7.6c6.7-10.4,3.3-22.7-6.1-29.8      c-4.1-3.1-9.3-3.5-14.2-3.5c-10.7,0-21.4,0-32.1,0c-29.2,0-58.3,0-87.5,0c-2.5,0-5.1,0-7.6,0c-10,0-18.3,6.7-21,16.2      c-3.5,12.5,7.7,23.7,14.3,33c8.8,12.3,17.5,24.5,26.3,36.8c2.6,3.7,5.5,9.5,10.6,9.5c3.3,0,6.7,0,10,0c14.5,0,28.9,0,43.4,0      c4.8,0,9.6,0,14.4,0c4.3,0,6.7-2.5,9.1-5.7c13.4-18.8,26.9-37.6,40.3-56.4C336.5,51.8,323.5,44.3,317.9,52.1z"/></g></g></g><g><path d="M294.2,314l-24.7-10.3v-57.8h8.7c10.2,0,18.4,9.2,18.4,20.6c0,2.7,1.1,5.1,2.8,6.9    c1.8,1.8,4.2,2.8,6.9,2.8h7.7c5.4,0,9.7-4.3,9.7-9.7c0-14.1-5.1-26.8-13.4-36c-8.2-9.2-19.6-14.9-32.1-15h-8.7v-15.2    c0-8.4-6.1-15.2-13.5-15.2c-3.7,0-7.1,1.7-9.6,4.4c-2.4,2.8-4,6.5-4,10.7v15.2h-8.7c-25.1-0.1-45.6,22.7-45.7,50.8    c-0.1,21.4,11.8,40.5,29.7,48l24.7,10.3v57.8h-8.7c-10.2,0-18.4-9.2-18.4-20.6c0-2.7-1.1-5.1-2.8-6.9c-1.8-1.8-4.2-2.8-6.9-2.8    H198c-5.4,0-9.7,4.3-9.7,9.7c0,14.1,5.1,26.8,13.4,36c8.2,9.2,19.6,15,32.1,15h44.4c25.1,0.1,45.6-22.7,45.7-50.8    C323.9,340.6,312.1,321.5,294.2,314z M242.5,279.3c0,6.2-6.3,10.4-12,8l-3.1-1.3c-7.1-3.1-11.9-10.8-11.9-19.4    c0-11.4,8.3-20.6,18.4-20.6c2.4,0,4.6,1,6.1,2.5c1.6,1.6,2.5,3.7,2.5,6.1V279.3z M278.2,382.5c-2.4,0-4.6-1-6.1-2.5    s-2.5-3.7-2.5-6.1v-24.7c0-6.2,6.3-10.4,12-8l3.1,1.3c7.1,3.1,11.9,10.8,11.9,19.4C296.6,373.2,288.4,382.5,278.2,382.5z" fill="#726658"/><g><path d="M278.2,375c-2.7-0.2-1.2-22.6-1.2-25.9c0-2,2.5-0.8,4.1-0.1c2.7,1.1,5.7,3.9,7.1,7.6C291,364.1,287.1,374.6,278.2,375     c-9.6,0.4-9.7,15.4,0,15c18.2-0.7,28-17.8,25.2-34.6c-2.1-12.8-19.3-28.3-32.8-20.6c-10.6,6.1-8.6,18.2-8.6,28.6     c0,3.5,0,6.9,0,10.4c0,9.3,7.4,15.5,16.2,16.2C287.9,390.8,287.8,375.8,278.2,375z"/><path d="M235,279.3c-0.1,2-2.4,0.8-4.1,0.1c-2.7-1.1-5.7-3.9-7.1-7.6c-2.8-7.5,1.1-18.1,10-18.4c2.3-0.1,1.2,10.2,1.2,11.6     C235,269.7,235,274.5,235,279.3c0,9.7,15,9.7,15,0c0-7.9,0-15.7,0-23.6c0-6.6-2.8-11.9-8.4-15.3c-7.3-4.5-17.8-1.1-23.7,4     c-13.1,11.2-12.9,32.4-0.4,43.9c4.3,4,10.9,6.9,16.7,7.1c9.1,0.3,15.2-7.9,15.8-16.2C250.7,269.6,235.7,269.7,235,279.3z"/><path d="M296.2,306.8c-8.2-3.4-16.4-6.9-24.7-10.3c1.8,2.4,3.7,4.8,5.5,7.2c0-19.3,0-38.5,0-57.8c-2.5,2.5-5,5-7.5,7.5     c3.8,0,8.8-0.9,12.3,0.7c8.4,3.8,6.4,13.6,9.4,20.6c3.4,8,12.5,9,19.9,9c8.3,0,16.1-3,19.1-11.4c3-8.6,0-20.1-3.1-28.3     c-3.3-8.8-8.7-16.8-15.8-23.1c-7-6.3-15.7-10.5-24.9-12.1c-5.6-1-11.2-0.8-16.8-0.8c2.5,2.5,5,5,7.5,7.5c0-5,0-10.1,0-15.1     c0-11.1-8.1-22.1-19.7-22.7c-13.1-0.7-21.8,10.4-22.3,22.6c-0.2,5,0,10.1,0,15.2c2.5-2.5,5-5,7.5-7.5c-5.8,0-11.4,0-17.2,0.8     c-9.3,1.3-17.8,6.2-24.9,12.2c-14.9,12.7-21.5,33.9-19.3,52.9c2.3,19.9,14.2,38.8,32.9,46.9c8.8,3.8,17.6,7.4,26.4,11.1     c-1.8-2.4-3.7-4.8-5.5-7.2c0,19.3,0,38.6,0,57.8c2.5-2.5,5-5,7.5-7.5c-7.2,0-13.7,1-17.9-6.1c-3-5.1-1.3-11.3-4.6-16.6     c-3.3-5.3-9.5-7.7-15.5-7.7c-3.7,0-7.4-0.1-11,0.6c-6.3,1.3-11.1,7.3-12.3,13.3c-1.3,6.3,0.3,13.7,1.8,19.9     c1.7,6.6,4.7,12.9,8.5,18.5c7.3,10.9,18.4,18.9,31.2,22.1c6.2,1.6,12.7,1.3,19,1.3c12.6,0,25.2,0.1,37.8,0     c25.8-0.3,45.9-22,50.7-46.2c5.1-26.1-7.1-55.6-32.2-66.5c-3.8-1.6-8-1.1-10.3,2.7c-1.9,3.2-1.1,8.6,2.7,10.3     c22.3,9.7,30.5,35.5,23.2,57.7c-3.3,9.9-10.4,18.2-19.5,23.2c-6,3.3-12.5,3.9-19.1,3.9c-13.4,0-26.8,0-40.2,0     c-9.9,0-18.6-3.7-25.7-10.6c-4.2-4-7.5-9.1-9.7-14.4c-2.2-5.3-4.7-13.3-3.5-19.1c0.6-2.9,7.7-1.6,9.7-1.6c3.3,0,2.5,5,2.8,7.1     c0.6,3.9,2,7.5,4,10.8c4,6.7,11.2,11.3,18.9,12.2c3.7,0.4,7.5,0.2,11.3,0.2c4.1,0,7.5-3.4,7.5-7.5c0-19.3,0-38.6,0-57.8     c0-3.7-2.4-5.9-5.5-7.2c-7.7-3.2-15.5-6.5-23.2-9.7c-0.4-0.2-0.8-0.4-1.3-0.5c-0.3-0.1-0.2-0.1,0.4,0.1c-1.3-0.5-2.5-1.2-3.7-1.9     c-3.5-1.9-6.4-4.5-9.2-7.4c-5.7-6-9.1-13.8-10.9-21.8c-3.5-15.7,1.8-32.8,13.5-43.9c9.3-8.8,20.4-9.4,32.4-9.4     c4.1,0,7.5-3.4,7.5-7.5c0-4.8-2.6-24.3,6.6-22.8c8.2,1.3,5.5,17.2,5.5,22.8c0,4.1,3.4,7.5,7.5,7.5c10.9,0,20.9,0.4,30,7.5     c5.8,4.5,10.3,10.7,13.1,17.4c1.6,3.8,2.7,7.9,3.2,11.9c0.3,2.2,1.6,7-0.7,8.5c-1.5,1-7.8,0.9-9.5,0.2c-2.5-1.1-1.9-6.3-2.2-8.5     c-0.6-3.7-2.4-7.4-4.5-10.5c-4.2-6.2-10.7-10.2-18.1-11.1c-3.7-0.4-7.5-0.2-11.3-0.2c-4.1,0-7.5,3.4-7.5,7.5     c0,19.3,0,38.5,0,57.8c0,3.7,2.4,5.9,5.5,7.2c8.2,3.4,16.4,6.9,24.7,10.3c3.8,1.6,8.2-1.7,9.2-5.2     C302.6,311.7,300,308.4,296.2,306.8z"/></g></g><g><path d="M296.6,361.8c0,11.4-8.3,20.6-18.4,20.6c-2.4,0-4.6-1-6.1-2.5s-2.5-3.7-2.5-6.1v-24.7c0-6.2,6.3-10.4,12-8    l3.1,1.3C291.9,345.5,296.6,353.2,296.6,361.8z" fill="#FBB040"/><g><path d="M289.1,361.8c-0.1,4.2-1.5,7.7-4.6,10.7c-1,1-7.3,4.4-7.5,1.3c-0.4-4.7,0-9.6,0-14.3c0-1.9-0.8-10.9,0.5-11.4     c1.8-0.7,5,1.6,5.8,2.1C287.3,352.5,289,357.5,289.1,361.8c0.4,9.6,15.4,9.7,15,0c-0.3-8.3-3.3-16.1-9.5-21.8     c-4.3-4-11.9-7.6-17.9-7c-8.6,0.9-14,7.7-14.6,16c-0.2,3.4,0,7,0,10.4c0,10.3-2.1,24,9.6,29c17.3,7.3,32-11,32.4-26.7     C304.4,352.2,289.4,352.2,289.1,361.8z"/></g></g><g><path d="M242.5,254.5v24.7c0,6.2-6.3,10.4-12,8l-3.1-1.3c-7.1-3.1-11.9-10.8-11.9-19.4c0-11.4,8.3-20.6,18.4-20.6    c2.4,0,4.6,1,6.1,2.5C241.5,250,242.5,252.1,242.5,254.5z" fill="#FBB040"/><g><path d="M235,254.5c0,4.8,0,9.5,0,14.3c0,1.9,0.8,10.9-0.5,11.4c-1.8,0.7-5-1.6-5.8-2.1c-4-2.3-5.6-7.4-5.8-11.7     c-0.2-4.1,1.7-7.9,4.6-10.7C228.4,254.9,234.7,251.4,235,254.5c0.8,9.6,15.8,9.6,15,0c-1.7-21.1-27.2-19-36.9-4.9     c-9.6,14-5.3,35.2,10.5,42.8c5.6,2.7,12,4.5,17.8,1.1c5.8-3.3,8.6-8.9,8.6-15.5c0-7.9,0-15.7,0-23.6     C250,244.9,235,244.9,235,254.5z"/></g></g></g></svg>